# xmcd CD database file
#
# Track frame offsets:
#	182
#	28935
#	49897
#	73202
#	105480
#	155787
#	178265
#	207992
#	252537
#
# Disc length: 3898 seconds
#
# Revision: 0
# Processed by: cddbd v1.5.2PL0 Copyright (c) Steve Scherf et al.
# Submitted via: CDex 1.70beta2
#
DISCID=8c0f3809
DTITLE=Dizzy Gillespie  - Live in Milan 1968
DYEAR=1900
DGENRE=Jazz
TTITLE0=Things To Come
TTITLE1=Ray's Idea
TTITLE2=One Bass Hit
TTITLE3=Manteca
TTITLE4=Nbani
TTITLE5=Something In Your Smile
TTITLE6=Milan Is Love
TTITLE7=Old Folks
TTITLE8=Frisco
EXTD=
EXTT0=
EXTT1=
EXTT2=
EXTT3=
EXTT4=
EXTT5=
EXTT6=
EXTT7=
EXTT8=
PLAYORDER=
